<svg width="220" height="60" viewBox="0 0 202 40" fill="none" xmlns="http://www.w3.org/2000/svg">
<path d="M17.343 2.65705L20 0L40 20L20 40L17.3429 37.3429L34.6859 20L17.343 2.65705Z" fill="#D41C1C"></path>
<path d="M13.8744 6.12564L16.5314 3.46859L33.0628 20L16.5314 36.5314L13.8744 33.8744L27.7487 20L13.8744 6.12564Z" fill="#D41C1C"></path>
<path d="M1.32248e-06 20L13.0628 6.93718L26.1256 20L13.0628 33.0628L10.4058 30.4058L20.8115 20L13.0628 12.2513L2.65705 22.657L1.32248e-06 20Z" fill="#D41C1C"></path>
<path d="M13.0628 13.8744L10.4058 16.5314L13.8744 20L6.93718 26.9372L9.59422 29.5942L19.1885 20L13.0628 13.8744Z" fill="#D41C1C"></path>
<path d="M6.12564 26.1256L3.46859 23.4686L9.56643 17.3708L12.2235 20.0278L6.12564 26.1256Z" fill="#D41C1C"></path>
<text x="49.6904" y="25" font-family="Arial" font-size="20" fill="#2E0707">PathFinder</text>
<path d="M89.9944 32.524C90.8502 31.8673 91.4654 30.9466 91.7446 29.9046L95.0194 30.782C94.547 32.5449 93.5062 34.1027 92.0583 35.2137C90.6103 36.3247 88.8363 36.927 87.0112 36.927C85.1861 36.927 83.412 36.3247 81.9641 35.2137C80.5162 34.1027 79.4753 32.5449 79.003 30.782L82.2777 29.9046C82.5569 30.9466 83.1722 31.8673 84.028 32.524C84.8838 33.1807 85.9324 33.5367 87.0112 33.5367C88.0899 33.5367 89.1385 33.1807 89.9944 32.524Z" fill="#2E0707"></path>
</svg>